# Blender 3.6.23
# www.blender.org
o Cube
v -0.350000 -0.152404 -0.255425
v -0.097774 0.152404 -0.003199
v -0.350000 -0.152404 0.350000
v -0.097774 0.152404 0.097774
v 0.350000 -0.152404 -0.255425
v 0.097774 0.152404 -0.003199
v 0.350000 -0.152404 0.350000
v 0.097774 0.152404 0.097774
v -0.127521 0.022173 -0.186731
v -0.127521 -0.022173 -0.186731
v -0.240636 0.041841 -0.638757
v -0.240636 -0.041841 -0.638757
v -0.222479 0.022173 -0.186731
v -0.222479 -0.022173 -0.186731
v -0.419822 0.041841 -0.638757
v -0.419822 -0.041841 -0.638757
v 0.222479 0.022173 -0.186731
v 0.222479 -0.022173 -0.186731
v 0.419822 0.041841 -0.638757
v 0.419822 -0.041841 -0.638757
v 0.127521 0.022173 -0.186731
v 0.127521 -0.022173 -0.186731
v 0.240636 0.041841 -0.638757
v 0.240636 -0.041841 -0.638757
v 0.350000 0.152404 -0.255425
v 0.350000 0.152404 0.350000
v -0.350000 0.152404 -0.255425
v -0.350000 0.152404 0.350000
v 0.097774 0.177777 -0.003199
v 0.097774 0.177777 0.097774
v -0.097774 0.177777 -0.003199
v -0.097774 0.177777 0.097774
vn -0.0000 -1.0000 -0.0000
vn -0.0000 -0.0000 1.0000
vn 1.0000 -0.0000 -0.0000
vn -1.0000 -0.0000 -0.0000
vn -0.0000 -0.0000 -1.0000
vn 0.9701 -0.0000 -0.2428
vn -0.9165 -0.0000 0.4001
vn -0.0000 0.9991 0.0435
vn -0.0000 -0.9991 0.0435
vn 0.9165 -0.0000 0.4001
vn -0.9701 -0.0000 -0.2428
vn -0.0000 1.0000 -0.0000
vt 0.964165 0.638639
vt 0.734188 0.638639
vt 0.734188 0.439734
vt 0.964165 0.439734
vt 0.979023 0.450104
vt 0.979023 0.609110
vt 0.613861 0.609110
vt 0.613861 0.450104
vt 0.712911 0.474408
vt 0.712911 0.608244
vt 0.978743 0.608244
vt 0.978743 0.474408
vt 0.988102 0.963369
vt 0.811814 0.963369
vt 0.811814 0.940494
vt 0.988102 0.940494
vt 0.950437 0.471997
vt 0.950437 0.595030
vt 0.706061 0.595030
vt 0.706061 0.471997
vt 0.658814 0.469491
vt 0.658814 0.613161
vt 0.988757 0.613161
vt 0.988757 0.469491
vt 0.789898 0.547713
vt 0.789898 0.562282
vt 0.938406 0.568744
vt 0.938406 0.541252
vt 0.839343 0.492600
vt 0.839343 0.539270
vt 0.939276 0.539270
vt 0.939276 0.492600
vt 0.954031 0.513908
vt 0.954031 0.541400
vt 0.805523 0.534939
vt 0.805523 0.520369
vt 0.857816 0.231307
vt 0.857816 0.245876
vt 0.826619 0.245876
vt 0.826619 0.231307
vt 0.983375 0.410944
vt 0.980245 0.054679
vt 0.029570 0.076437
vt 0.020978 0.396340
vt 0.989057 0.604421
vt 0.930187 0.604421
vt 0.893025 0.455914
vt 0.924222 0.455914
vt 0.774325 0.516888
vt 0.774325 0.534513
vt 0.953978 0.542330
vt 0.953978 0.509072
vt 0.815888 0.486563
vt 0.815888 0.525776
vt 0.899855 0.525776
vt 0.899855 0.486563
vt 0.978534 0.521597
vt 0.978534 0.561055
vt 0.765395 0.551781
vt 0.765395 0.530871
vt 0.742828 0.231307
vt 0.742828 0.245876
vt 0.711631 0.245876
vt 0.711631 0.231307
vt 0.991924 0.422816
vt 0.984278 0.065004
vt 0.007632 0.060950
vt 0.027967 0.415922
vt 0.874860 0.605306
vt 0.819935 0.605306
vt 0.880426 0.466748
vt 0.909533 0.466748
vt 0.251347 0.635745
vt 0.251347 0.591065
vt 0.139739 0.479458
vt 0.139739 0.747352
vt 0.343632 0.745776
vt 0.198471 0.745776
vt 0.011237 0.933011
vt 0.530867 0.933011
vt 0.740067 0.601267
vt 0.829380 0.601267
vt 0.944580 0.486067
vt 0.624867 0.486067
vt 0.272437 0.584517
vt 0.272437 0.634481
vt 0.397246 0.759290
vt 0.397246 0.459708
vt 0.781041 0.982202
vt 0.991530 0.982202
vt 0.991530 0.873514
vt 0.781041 0.873514
vt 0.802372 0.981471
vt 0.990844 0.981471
vt 0.990844 0.934110
vt 0.802372 0.934110
vt 0.832743 0.945147
vt 0.980005 0.945147
vt 0.980005 0.982153
vt 0.832743 0.982153
vt 0.824439 0.868920
vt 0.959852 0.868920
vt 0.959852 0.851349
vt 0.824439 0.851349
s 0
f 1/1/1 5/2/1 7/3/1 3/4/1
f 28/5/2 3/6/2 7/7/2 26/8/2
f 26/9/3 7/10/3 5/11/3 25/12/3
f 4/13/2 8/14/2 30/15/2 32/16/2
f 27/17/4 1/18/4 3/19/4 28/20/4
f 25/21/5 5/22/5 1/23/5 27/24/5
f 9/25/6 10/26/6 12/27/6 11/28/6
f 11/29/5 12/30/5 16/31/5 15/32/5
f 15/33/7 16/34/7 14/35/7 13/36/7
f 13/37/2 14/38/2 10/39/2 9/40/2
f 11/41/8 15/42/8 13/43/8 9/44/8
f 16/45/9 12/46/9 10/47/9 14/48/9
f 17/49/10 18/50/10 20/51/10 19/52/10
f 19/53/5 20/54/5 24/55/5 23/56/5
f 23/57/11 24/58/11 22/59/11 21/60/11
f 21/61/2 22/62/2 18/63/2 17/64/2
f 19/65/8 23/66/8 21/67/8 17/68/8
f 24/69/9 20/70/9 18/71/9 22/72/9
f 6/73/12 8/74/12 26/75/12 25/76/12
f 2/77/12 6/78/12 25/79/12 27/80/12
f 8/81/12 4/82/12 28/83/12 26/84/12
f 4/85/12 2/86/12 27/87/12 28/88/12
f 29/89/12 31/90/12 32/91/12 30/92/12
f 8/93/3 6/94/3 29/95/3 30/96/3
f 2/97/4 4/98/4 32/99/4 31/100/4
f 6/101/5 2/102/5 31/103/5 29/104/5
