# Blender 3.6.23
# www.blender.org
o Cube
v 0.086698 0.000000 -0.041246
v 0.086698 0.000000 0.017926
v -0.086698 0.000000 -0.017926
v -0.086698 0.000000 0.017926
v -0.042322 0.189114 -0.017926
v -0.042322 0.189114 0.017926
v -0.042322 -0.189114 -0.017926
v -0.042322 -0.189114 0.017926
v 0.042322 0.189114 -0.017926
v 0.042322 0.189114 0.017926
v 0.042322 -0.189114 -0.017926
v 0.042322 -0.189114 0.017926
v 0.042322 0.189114 0.041246
v 0.086698 0.000000 0.041246
v 0.020601 -0.214004 -0.020077
v 0.086698 0.000000 -0.017926
v 0.020601 -0.214004 0.020077
v 0.042322 0.189114 -0.041246
v -0.042322 0.189114 -0.041246
v -0.042322 0.189114 0.041246
v -0.086698 0.000000 0.041246
v -0.020601 -0.214004 -0.020077
v -0.020601 -0.214004 0.020077
v -0.086698 0.000000 -0.041246
v -0.372841 0.000000 -0.230515
v -0.392062 0.000000 -0.214387
v -0.344688 0.401681 -0.196964
v -0.363909 0.401681 -0.180836
v -0.344688 -0.401681 -0.196964
v -0.363909 -0.401681 -0.180836
v 0.372841 0.000000 -0.230515
v 0.392062 0.000000 -0.214387
v 0.363909 0.401681 -0.180836
v 0.344688 -0.401681 -0.196964
v 0.363909 -0.401681 -0.180836
v 0.344688 0.401681 -0.196964
v -0.590835 0.000000 -0.490310
v -0.610055 0.000000 -0.474182
v -0.562682 0.256543 -0.456759
v -0.581902 0.256543 -0.440630
v -0.562682 -0.256543 -0.456759
v -0.581902 -0.256543 -0.440630
v 0.590835 0.000000 -0.490310
v 0.610055 0.000000 -0.474182
v 0.581902 0.256543 -0.440630
v 0.562682 -0.256543 -0.456759
v 0.581902 -0.256543 -0.440630
v 0.562682 0.256543 -0.456759
v -0.068540 0.241290 -0.066797
v -0.068540 0.241290 0.066797
v 0.068540 0.241290 -0.066797
v 0.068540 0.241290 0.066797
v -0.040559 0.290834 -0.039528
v -0.040559 0.290834 0.039528
v 0.040559 0.290834 -0.039528
v 0.040559 0.290834 0.039528
vn -0.0000 -0.0984 0.9951
vn -0.8935 -0.4490 -0.0000
vn -0.0000 -0.0000 -1.0000
vn -0.0000 -0.0984 -0.9951
vn -0.0000 -0.0000 1.0000
vn -0.4787 0.8599 0.1770
vn -0.5614 -0.0219 0.8273
vn 0.4787 0.8599 0.1770
vn -0.0000 -1.0000 -0.0000
vn -0.5489 0.0199 -0.8357
vn 0.9736 0.2284 -0.0000
vn 0.8447 -0.2562 -0.4700
vn 0.7534 -0.6575 -0.0000
vn 0.8447 -0.2562 0.4700
vn -0.9736 0.2284 -0.0000
vn -0.7534 -0.6575 -0.0000
vn -0.8447 -0.2562 -0.4700
vn -0.8447 -0.2562 0.4700
vn 0.7660 -0.0000 -0.6428
vn -0.7660 -0.0000 0.6428
vn 0.5489 -0.0199 -0.8357
vn -0.5614 0.0219 0.8273
vn 0.5489 0.0199 -0.8357
vn 0.4787 -0.8599 0.1770
vn 0.2529 -0.9193 -0.3014
vn 0.2529 0.9193 -0.3014
vn -0.4787 -0.8599 0.1770
vn 0.5614 0.0219 0.8273
vn -0.5489 -0.0199 -0.8357
vn 0.5614 -0.0219 0.8273
vn -0.6336 -0.1683 -0.7551
vn -0.6336 0.1683 -0.7551
vn -0.2529 -0.9193 -0.3014
vn -0.2529 0.9193 -0.3014
vn 0.6336 -0.1683 -0.7551
vn 0.6336 0.1683 -0.7551
vn 0.7660 -0.0000 0.6428
vn -0.7660 -0.0000 -0.6428
vn -0.0000 0.4822 0.8761
vn -0.0000 -0.4398 -0.8981
vn 0.8935 -0.4490 -0.0000
vn -0.0000 -0.4398 0.8981
vn -0.0000 1.0000 -0.0000
vn -0.8707 0.4918 -0.0000
vn 0.8707 0.4918 -0.0000
vn -0.0000 0.4822 -0.8761
vt 0.531476 0.253004
vt 0.980522 0.253004
vt 0.980522 0.489533
vt 0.531476 0.489533
vt 0.804979 0.831890
vt 0.726550 0.831890
vt 0.527950 0.009498
vt 0.991860 0.009498
vt 0.991860 0.251660
vt 0.527950 0.251660
vt 0.991860 0.493822
vt 0.527950 0.493822
vt 0.531476 0.016475
vt 0.980522 0.016475
vt 0.883409 0.831890
vt 0.033203 0.985404
vt 0.031410 0.498047
vt 0.193213 0.494141
vt 0.273544 0.984375
vt 0.764697 0.010662
vt 0.809192 0.010662
vt 0.809192 0.055158
vt 0.764697 0.055158
vt 0.015808 0.023709
vt 0.019098 0.510984
vt 0.244752 0.525575
vt 0.243318 0.015460
vt 0.796513 0.301045
vt 0.808185 0.448304
vt 0.703133 0.441634
vt 0.698131 0.302712
vt 0.851140 0.241704
vt 0.841596 0.024383
vt 0.682531 0.018020
vt 0.644355 0.238523
vt 0.860156 0.291502
vt 0.780176 0.288402
vt 0.784827 0.311655
vt 0.863256 0.311655
vt 0.796513 0.167126
vt 0.694796 0.158788
vt 0.803421 0.509926
vt 0.657080 0.509926
vt 0.726550 0.871105
vt 0.875326 0.125037
vt 0.947759 0.139869
vt 0.953395 0.117524
vt 0.878322 0.107618
vt 0.807381 0.288018
vt 0.807381 0.159083
vt 0.712365 0.162251
vt 0.712365 0.289602
vt 0.804213 0.416954
vt 0.712365 0.416954
vt 0.726550 0.910319
vt 0.238476 0.990157
vt 0.267123 0.490157
vt 0.494608 0.500000
vt 0.486878 0.986671
vt 0.476041 0.507812
vt 0.476294 0.977541
vt 0.011074 0.988864
vt 0.012870 0.490157
vt 0.009766 0.014596
vt 0.252060 0.003906
vt 0.004922 0.006214
vt 0.293844 0.009843
vt 0.804979 0.910319
vt 0.804979 0.753461
vt 0.883409 0.753461
vt 0.009334 0.986644
vt 0.017426 0.488281
vt 0.304376 0.494141
vt 0.222346 0.993187
vt 0.007762 0.986979
vt 0.260271 0.987455
vt 0.015194 0.011403
vt 0.259456 0.018531
vt 0.804979 0.871105
vt 0.476294 0.032225
vt 0.494261 0.008408
vt 0.883409 0.792675
vt 0.804979 0.792675
vt 0.206721 0.987328
vt 0.195001 0.492187
vt 0.494051 0.498047
vt 0.476474 0.985266
vt 0.487675 0.978774
vt 0.490511 0.571589
vt 0.255549 0.016578
vt 0.494052 0.012780
vt 0.486798 0.006722
vt 0.804979 0.596602
vt 0.726550 0.596602
vt 0.726550 0.753461
vt 0.726550 0.675031
vt 0.804979 0.675031
s 0
f 14/1/1 21/2/1 23/3/1 17/4/1
f 19/5/2 20/6/2 50/6/2 49/5/2
f 19/7/3 18/8/3 1/9/3 24/10/3
f 24/10/4 1/9/4 15/11/4 22/12/4
f 13/13/5 20/14/5 21/2/5 14/1/5
f 9/15/6 10/5/6 33/5/6 36/15/6
f 8/16/7 4/17/7 26/18/7 30/19/7
f 6/6/8 5/5/8 27/5/8 28/6/8
f 23/20/9 22/21/9 15/22/9 17/23/9
f 11/24/10 16/25/10 31/26/10 34/27/10
f 2/28/11 10/29/11 13/30/11 14/31/11
f 16/32/12 11/33/12 15/34/12 1/35/12
f 11/36/13 12/37/13 17/38/13 15/39/13
f 12/40/14 2/28/14 14/31/14 17/41/14
f 10/5/3 9/15/3 18/15/3 13/5/3
f 9/42/11 16/32/11 1/35/11 18/43/11
f 5/5/3 6/6/3 20/6/3 19/5/3
f 6/6/15 4/44/15 21/44/15 20/6/15
f 8/45/16 7/46/16 22/47/16 23/48/16
f 3/49/15 5/50/15 19/51/15 24/52/15
f 7/53/17 3/49/17 24/52/17 22/54/17
f 4/44/18 8/55/18 23/55/18 21/44/18
f 27/56/19 25/57/19 37/58/19 39/59/19
f 30/19/20 26/18/20 38/60/20 42/61/20
f 5/62/21 3/63/21 25/57/21 27/56/21
f 4/17/22 6/64/22 28/65/22 26/18/22
f 3/63/23 7/66/23 29/67/23 25/57/23
f 7/68/24 8/55/24 30/55/24 29/68/24
f 35/69/25 34/70/25 46/70/25 47/69/25
f 36/15/26 33/5/26 45/5/26 48/15/26
f 12/69/27 11/70/27 34/70/27 35/69/27
f 10/71/28 2/72/28 32/73/28 33/74/28
f 16/25/29 9/75/29 36/76/29 31/26/29
f 2/72/30 12/77/30 35/78/30 32/73/30
f 38/44/31 37/79/31 41/68/31 42/55/31
f 40/6/32 39/5/32 37/79/32 38/44/32
f 26/18/20 28/65/20 40/80/20 38/60/20
f 25/57/19 29/67/19 41/81/19 37/58/19
f 29/68/33 30/55/33 42/55/33 41/68/33
f 28/6/34 27/5/34 39/5/34 40/6/34
f 47/69/35 46/70/35 43/82/35 44/83/35
f 44/83/36 43/82/36 48/15/36 45/5/36
f 33/84/37 32/85/37 44/86/37 45/87/37
f 31/26/38 36/76/38 48/88/38 43/89/38
f 32/85/37 35/90/37 47/91/37 44/86/37
f 34/27/38 31/26/38 43/89/38 46/92/38
f 50/93/39 52/94/39 56/94/39 54/93/39
f 18/69/40 19/95/40 49/95/40 51/69/40
f 13/5/41 18/15/41 51/15/41 52/5/41
f 20/93/42 13/94/42 52/94/42 50/93/42
f 56/96/43 55/97/43 53/69/43 54/95/43
f 49/5/44 50/6/44 54/6/44 53/5/44
f 52/5/45 51/15/45 55/15/45 56/5/45
f 51/69/46 49/95/46 53/95/46 55/69/46
