# Blender 3.6.23
# www.blender.org
o Penguin
v 0.278722 -0.156779 -0.280357
v 0.325307 -0.104152 0.280357
v 0.278722 0.156779 -0.280357
v 0.325307 0.104152 0.280357
v -0.278722 -0.156779 -0.280357
v -0.325307 -0.104153 0.280357
v -0.278722 0.156779 -0.280357
v -0.325307 0.104153 0.280357
v -0.343555 -0.343555 0.500000
v -0.343555 0.343555 0.500000
v 0.260473 -0.260473 -0.500000
v 0.343555 -0.343555 0.500000
v -0.098775 0.293956 -0.304331
v 0.098775 0.293956 -0.304331
v 0.343555 0.343555 0.500000
v -0.260473 -0.260473 -0.500000
v -0.405989 -0.104153 0.278287
v -0.405989 0.104153 0.278287
v -0.303636 0.156779 -0.282427
v -0.303636 -0.156779 -0.282427
v 0.303636 -0.156779 -0.282427
v 0.405989 -0.104152 0.278287
v 0.303636 0.156779 -0.282427
v 0.405989 0.104152 0.278287
v 0.295521 -0.295521 -0.078153
v -0.107951 0.306564 -0.152581
v 0.107951 0.306564 -0.152581
v -0.295521 -0.295521 -0.078153
v 0.298373 -0.134579 -0.043821
v -0.298373 0.134579 -0.043821
v 0.298373 0.134579 -0.043821
v -0.298373 -0.134579 -0.043821
v -0.346813 0.134579 -0.045891
v -0.346813 -0.134579 -0.045891
v 0.346813 -0.134579 -0.045891
v 0.346813 0.134579 -0.045891
v -0.295521 0.295521 -0.078153
v -0.260473 0.260473 -0.500000
v 0.260473 0.260473 -0.500000
v 0.295521 0.295521 -0.078153
v -0.027334 0.369545 -0.225268
v -0.025010 0.366353 -0.263692
v 0.025010 0.366353 -0.263692
v 0.027334 0.369545 -0.225268
vn -0.0000 -0.0000 -1.0000
vn 0.6677 0.7374 -0.1016
vn 0.0828 -0.0000 -0.9966
vn -0.0000 -0.0000 1.0000
vn 0.0256 -0.0000 0.9997
vn -0.0000 -0.9966 -0.0828
vn -0.9966 -0.0000 -0.0828
vn 0.9966 -0.0000 -0.0828
vn -0.9837 -0.0000 -0.1796
vn -0.0030 -0.9957 0.0931
vn -0.0052 0.9957 0.0928
vn -0.0256 -0.0000 0.9997
vn 0.9837 -0.0000 -0.1796
vn -0.0828 -0.0000 -0.9966
vn 0.0030 0.9957 0.0931
vn 0.0052 -0.9957 0.0928
vn 0.0030 -0.9957 0.0931
vn 0.0052 0.9957 0.0928
vn -0.0030 0.9957 0.0931
vn -0.0052 -0.9957 0.0928
vn -0.0000 0.9966 -0.0828
vn -0.0952 0.9914 -0.0897
vn -0.0000 0.9857 -0.1687
vn 0.0952 0.9914 -0.0897
vn -0.0000 0.9892 0.1468
vn -0.6677 0.7374 -0.1016
vn -0.0000 0.7558 0.6549
vn -0.0000 0.4895 -0.8720
vt 0.145818 0.190385
vt 0.048080 0.190385
vt 0.048080 0.092647
vt 0.145818 0.092647
vt 0.555705 0.157307
vt 0.553106 0.200294
vt 0.532210 0.188781
vt 0.532868 0.177897
vt 0.044657 0.112102
vt 0.044657 0.170930
vt 0.039982 0.170930
vt 0.039982 0.112102
vt 0.032493 0.205972
vt 0.161405 0.205972
vt 0.161405 0.077060
vt 0.032493 0.077060
vt 1.002030 0.488632
vt 1.002030 0.527713
vt 1.017167 0.527713
vt 1.017167 0.488632
vt 0.041505 0.132936
vt 0.048080 0.212081
vt 0.145818 0.212081
vt 0.152393 0.132936
vt 0.088946 0.065674
vt 0.128027 0.065674
vt 0.172943 0.024466
vt 0.044031 0.024466
vt 0.133736 0.126495
vt 0.128027 0.065674
vt 0.163931 0.132936
vt 0.083238 0.126495
vt 0.053043 0.132936
vt 0.083238 0.126495
vt 0.079073 0.170873
vt 0.059618 0.212081
vt 0.137901 0.170873
vt 0.157356 0.212081
vt 0.088946 0.065674
vt 0.083238 0.126883
vt 0.079073 0.171261
vt 0.137901 0.171261
vt 0.133736 0.126883
vt 0.885018 0.493152
vt 0.879965 0.432331
vt 0.864828 0.432719
vt 0.875930 0.493540
vt 0.888705 0.537529
vt 0.884031 0.537918
vt 0.879965 0.527713
vt 0.879965 0.488632
vt 0.864828 0.488632
vt 0.864828 0.527713
vt 0.083238 0.126883
vt 0.149241 0.170930
vt 0.149241 0.112102
vt 0.153916 0.112102
vt 0.153916 0.170930
vt 0.996977 0.493152
vt 1.002030 0.432331
vt 1.017167 0.432719
vt 1.006065 0.493540
vt 0.993290 0.537529
vt 0.997964 0.537918
vt 0.128027 0.066063
vt 0.088946 0.066063
vt 0.088946 0.066063
vt 0.128027 0.066063
vt 0.032493 0.024466
vt 0.161405 0.024466
vt 0.935130 0.686490
vt 0.917543 0.898166
vt 0.701148 0.898166
vt 0.683562 0.686490
vt 0.076696 0.146900
vt 0.078417 0.175370
vt 0.156868 0.806402
vt 0.345519 0.806402
vt 0.499932 0.993256
vt 0.002455 0.993256
vt 0.115481 0.175370
vt 0.117202 0.146900
vt 0.518040 0.188781
vt 0.517382 0.177897
vt 0.497145 0.200294
vt 0.494545 0.157307
vt 0.553106 0.065907
vt 0.497145 0.065907
vt 0.518040 0.045399
vt 0.532210 0.045399
s 0
f 11/1/1 16/2/1 38/3/1 39/4/1
f 27/5/2 14/6/2 43/7/2 44/8/2
f 7/9/3 5/10/3 20/11/3 19/12/3
f 9/13/4 12/14/4 15/15/4 10/16/4
f 4/17/5 2/18/5 22/19/5 24/20/5
f 28/21/6 16/22/6 11/23/6 25/24/6
f 8/25/7 6/26/7 9/27/7 10/28/7
f 29/29/8 2/30/8 12/27/8 25/31/8
f 30/32/7 8/25/7 10/28/7 37/33/7
f 31/34/8 3/35/8 39/36/8 40/33/8
f 32/29/7 5/37/7 16/38/7 28/31/7
f 3/35/8 1/37/8 11/38/8 39/36/8
f 5/37/7 7/35/7 38/36/7 16/38/7
f 2/30/8 4/39/8 15/28/8 12/27/8
f 33/40/9 19/41/9 20/42/9 34/43/9
f 32/44/10 6/45/10 17/46/10 34/47/10
f 30/44/11 7/48/11 19/49/11 33/47/11
f 6/50/12 8/51/12 18/52/12 17/53/12
f 35/43/13 21/42/13 23/41/13 36/54/13
f 1/55/14 3/56/14 23/57/14 21/58/14
f 31/59/15 4/60/15 24/61/15 36/62/15
f 29/59/16 1/63/16 21/64/16 35/62/16
f 2/60/17 29/59/17 35/62/17 22/61/17
f 3/63/18 31/59/18 36/62/18 23/64/18
f 22/65/13 35/43/13 36/54/13 24/66/13
f 8/45/19 30/44/19 33/47/19 18/46/19
f 5/48/20 32/44/20 34/47/20 20/49/20
f 18/67/9 33/40/9 34/43/9 17/68/9
f 6/26/7 32/29/7 28/31/7 9/27/7
f 4/39/8 31/34/8 40/33/8 15/28/8
f 7/35/7 30/32/7 37/33/7 38/36/7
f 1/37/8 29/29/8 25/31/8 11/38/8
f 9/69/6 28/21/6 25/24/6 12/70/6
f 15/71/21 40/72/21 37/73/21 10/74/21
f 26/75/22 13/76/22 38/22/22 37/21/22
f 13/77/23 14/78/23 39/79/23 38/80/23
f 14/81/24 27/82/24 40/24/24 39/23/24
f 27/82/25 26/75/25 37/21/25 40/24/25
f 44/8/21 43/7/21 42/83/21 41/84/21
f 13/85/26 26/86/26 41/84/26 42/83/26
f 26/86/27 27/5/27 44/8/27 41/84/27
f 14/87/28 13/88/28 42/89/28 43/90/28
